<svg width="104" height="156" viewBox="0 0 104 156" fill="none" xmlns="http://www.w3.org/2000/svg">
<path d="M77.9896 129.833C77.9896 144.093 66.3439 155.667 51.9948 155.667C37.6457 155.667 26 144.093 26 129.833C26 115.573 37.6457 104 51.9948 104C66.3439 104 77.9896 115.573 77.9896 129.833Z" fill="#1ABCFE"/>
<path d="M77.9896 77.8333C77.9896 92.0933 66.3439 103.667 51.9948 103.667C37.6457 103.667 26 92.0933 26 77.8333C26 63.5733 37.6457 52 51.9948 52C66.3439 52 77.9896 63.5733 77.9896 77.8333Z" fill="#6C63FF"/>
<path d="M0 25.8333C0 11.5733 11.6457 0 25.9948 0H51.9896V51.6667H25.9948C11.6457 51.6667 0 40.0933 0 25.8333Z" fill="#F24E1E"/>
<path d="M51.9896 0H77.9844C92.3335 0 103.979 11.5733 103.979 25.8333C103.979 40.0933 92.3335 51.6667 77.9844 51.6667H51.9896V0Z" fill="#FF7262"/>
</svg>
