<?xml version="1.0" encoding="UTF-8"?>
<svg id="Layer_2" data-name="Layer 2" xmlns="http://www.w3.org/2000/svg" viewBox="0 0 124 171.17">
  <defs>
    <style>
      .cls-1 {
        fill: #f24e1e;
      }

      .cls-2 {
        fill: #ff7262;
      }

      .cls-3 {
        fill: #1abcfe;
      }

      .cls-4 {
        fill: #6c63ff;
      }

      .cls-5 {
        fill: #20122e;
      }
    </style>
  </defs>
  <g id="OBJECTS">
    <g>
      <g>
        <path class="cls-4" d="m49.78,126.88l-14.2-.21c-1.49-.02-2.89-.7-3.82-1.87-.94-1.17-1.3-2.68-1-4.14l9.3-45.38H7.94v50.85c0,11.88,9.63,21.52,21.52,21.52h13.92l6.41-20.76Z"/>
        <path class="cls-4" d="m88.56,75.28l-9.28,26.87h16.18c1.92,0,3.7,1.12,4.52,2.86.82,1.74.56,3.83-.66,5.31l-30.68,37.32h25.9c11.88,0,21.52-9.63,21.52-21.52v-50.85h-27.5Z"/>
      </g>
      <g>
        <g>
          <path class="cls-5" d="m112.8,47.03H11.2c-6.19,0-11.2,5.01-11.2,11.2h0c0,6.19,5.01,11.2,11.2,11.2h101.6c6.19,0,11.2-5.01,11.2-11.2h0c0-6.19-5.01-11.2-11.2-11.2Z"/>
          <path class="cls-5" d="m67.82,69.44h44.98c6.19,0,11.2-5.01,11.2-11.2s-5.01-11.2-11.2-11.2h-45.67c.42,7.18.68,14.7.69,22.4Z"/>
        </g>
        <g>
          <path class="cls-1" d="m112.8,47.03H11.2c-6.19,0-11.2,5.01-11.2,11.2h0c0,6.19,5.01,11.2,11.2,11.2h101.6c6.19,0,11.2-5.01,11.2-11.2h0c0-6.19-5.01-11.2-11.2-11.2Z"/>
          <path class="cls-2" d="m67.82,69.44h44.98c6.19,0,11.2-5.01,11.2-11.2s-5.01-11.2-11.2-11.2h-45.67c.42,7.18.68,14.7.69,22.4Z"/>
        </g>
      </g>
      <path class="cls-3" d="m29.54,0h0c-4.69,0-8.5,3.8-8.5,8.5v33.54h17V8.5c0-4.69-3.8-8.5-8.5-8.5Z"/>
      <path class="cls-3" d="m94.46,0h0c4.69,0,8.5,3.8,8.5,8.5v33.54h-17V8.5c0-4.69,3.8-8.5,8.5-8.5Z"/>
      <path class="cls-1" d="m95.37,106.72c-.17-.35-.52-.57-.9-.57h-21.79l13.87-40.17c.11-.31.06-.64-.13-.91-.19-.26-.49-.42-.81-.42h-37.45c-.48,0-.88.33-.98.8l-11.49,56.02c-.06.29.01.59.2.83.19.23.47.37.76.37l19.53.29-14.48,46.92c-.14.46.06.95.48,1.18.15.08.31.12.47.12.29,0,.58-.13.77-.37l51.81-63.02c.25-.3.3-.71.13-1.06Z"/>
      <path class="cls-2" d="m42.31,170.1c.11.04.23.07.35.07.29,0,.58-.13.77-.37l51.81-63.02c.25-.3.3-.71.13-1.06-.17-.35-.52-.57-.9-.57h-21.79l13.87-40.17c.11-.31.06-.64-.13-.91-.19-.26-.49-.42-.81-.42h-17.82c.64,45-4.65,79.48-25.48,106.45Z"/>
    </g>
  </g>
</svg>